Patient4_TMGait_0pt5_02_left_01_GRF.mot
version=1
nRows=78
nColumns=19
inDegrees=no
endheader
time	F1x	F1y	F1z	M1x	M1y	M1z	F2x	F2y	F2z	M2x	M2y	M2z	EC1x	EC1y	EC1z	EC2x	EC2y	EC2z
0.54	-4.3645	-15.3871	7.6904	1.6496	-8.3726	-15.21	-24.9515	739.2208	-75.8398	265.0476	75.233	653.8119	-0.0592	0.0182	-0.0073	-0.0462	0.0165	0.9585
0.55336	-2.9203	-9.6114	5.1637	0.80027	-5.6734	-9.4005	-23.443	745.5022	-68.6054	266.9772	67.8883	654.7884	-0.0592	0.0182	-0.0073	-0.0462	0.0165	0.9585
0.56671	-1.6979	-4.6744	3.0289	0.075081	-3.3723	-4.4797	-21.4645	752.6821	-61.6785	269.5765	60.7106	655.753	-0.0592	0.0182	-0.0073	-0.0462	0.0165	0.9585
0.58007	-0.76589	-0.86516	1.4002	-0.4858	-1.6023	-0.72754	-18.9762	760.0571	-55.5277	272.6396	54.1224	656.2327	-0.0592	0.0182	-0.0073	-0.0462	0.0165	0.9585
0.59343	-0.12959	1.8206	0.27342	-0.88353	-0.3691	1.8793	-15.9738	766.9347	-50.376	275.8931	48.3187	655.7634	-0.0592	0.0182	-0.0073	-0.0462	0.0165	0.9585
0.60679	0.25504	3.523	-0.42533	-1.1356	0.40113	3.4969	-12.5147	772.8612	-46.2433	279.1102	43.3153	654.0876	-0.0592	0.0182	-0.0073	-0.0462	0.0165	0.9585
0.62014	0.43559	4.4397	-0.79367	-1.2645	0.80543	4.3412	-8.7014	777.6799	-43.064	282.1493	39.0558	651.1952	-0.0592	0.0182	-0.0073	-0.0462	0.0165	0.9585
0.6335	0.46245	4.749	-0.92974	-1.287	0.94489	4.5967	-4.6712	781.4229	-40.7211	284.9267	35.4516	647.2385	-0.0592	0.0182	-0.0073	-0.0462	0.0165	0.9585
0.64686	0.37403	4.5796	-0.91224	-1.2079	0.90134	4.3971	-0.56007	784.1314	-39.1237	287.3626	32.441	642.3766	-0.0592	0.0182	-0.0073	-0.0462	0.0165	0.9585
0.66021	0.20026	4.0061	-0.80867	-1.0202	0.7471	3.8232	3.5166	785.7716	-38.1772	289.362	29.9549	636.7005	-0.0592	0.0182	-0.0073	-0.0462	0.0165	0.9585
0.67357	-0.011284	3.0434	-0.65923	-0.70456	0.53558	2.8888	7.4772	786.2194	-37.7887	290.8124	27.9288	630.2184	-0.0592	0.0182	-0.0073	-0.0462	0.0165	0.9585
0.68693	-0.22445	1.68	-0.50277	-0.23844	0.3179	1.5813	11.2838	785.3245	-37.8295	291.6153	26.2675	622.891	-0.0592	0.0182	-0.0073	-0.0462	0.0165	0.9585
0.70029	-0.38446	-0.089976	-0.35682	0.39143	0.13099	-0.11871	14.9364	783.0126	-38.1693	291.7189	24.8683	614.7186	-0.0592	0.0182	-0.0073	-0.0462	0.0165	0.9585
0.71364	-0.42927	-2.2122	-0.24298	1.1677	0.020236	-2.1719	18.4739	779.2769	-38.707	291.1098	23.6437	605.7325	-0.0592	0.0182	-0.0073	-0.0462	0.0165	0.9585
0.727	-0.27988	-4.5171	-0.17169	2.0216	0.024583	-4.4227	21.9461	774.2146	-39.3947	289.8224	22.5451	596.0452	-0.0592	0.0182	-0.0073	-0.0462	0.0165	0.9585
0.74036	0.16355	-6.6365	-0.16706	2.8053	0.20105	-6.517	25.383	768.0445	-40.2142	287.9417	21.5512	585.8617	-0.0592	0.0182	-0.0073	-0.0462	0.0165	0.9585
0.75371	1.001	-7.9072	-0.25635	3.2607	0.6145	-7.8134	28.7832	761.0859	-41.1611	285.5916	20.6614	575.4679	-0.0592	0.0182	-0.0073	-0.0462	0.0165	0.9585
0.76707	2.3373	-7.3079	-0.48244	2.9923	1.3443	-7.3445	32.0925	753.6784	-42.2114	282.906	19.88	565.1851	-0.0592	0.0182	-0.0073	-0.0462	0.0165	0.9585
0.78043	4.2231	-3.4196	-0.87964	1.4529	2.4395	-3.7573	35.1999	746.0443	-43.3119	279.9773	19.2146	555.2568	-0.0592	0.0182	-0.0073	-0.0462	0.0165	0.9585
0.79379	6.6313	5.5363	-1.4834	-2.0443	3.9165	4.6302	37.9278	738.1336	-44.3837	276.7928	18.6792	545.7394	-0.0592	0.0182	-0.0073	-0.0462	0.0165	0.9585
0.80714	9.3733	21.554	-2.2978	-8.2661	5.7013	19.7139	40.0319	729.4786	-45.337	273.1824	18.3044	536.3969	-0.0592	0.0182	-0.0073	-0.0462	0.0165	0.9585
0.8205	12.016	46.4953	-3.2818	-17.9234	7.5852	43.2924	41.2168	719.1635	-46.0671	268.8077	18.1269	526.6646	-0.0592	0.0182	-0.0073	-0.0462	0.0165	0.9585
0.83386	13.7906	81.4846	-4.3101	-31.4351	9.1504	76.4817	41.2019	705.963	-46.455	263.2203	18.167	515.7194	-0.0592	0.0182	-0.0073	-0.0462	0.0165	0.9585
0.84721	13.5527	126.0484	-5.1472	-48.5957	9.733	118.9121	39.7881	688.618	-46.3642	255.9719	18.4048	502.6698	-0.0592	0.0182	-0.0073	-0.0462	0.0165	0.9585
0.86057	10.1528	177.2157	-5.4179	-68.2309	8.5413	167.8467	36.9363	666.2326	-45.6636	246.765	18.7673	486.8147	-0.0592	0.0182	-0.0073	-0.0462	0.0165	0.9585
0.87393	3.66	229.2994	-4.5628	-88.1083	5.082	217.9274	32.8279	638.6905	-44.2597	235.6057	19.1262	467.9219	-0.0592	0.0182	-0.0073	-0.0462	0.0165	0.9585
0.88729	-4.1591	275.3668	-2.036	-105.5454	-0.47783	262.4218	27.8761	606.8891	-42.1704	222.8849	19.3472	446.4009	-0.0592	0.0182	-0.0073	-0.0462	0.0165	0.9585
0.90064	-11.6453	310.9802	1.7604	-118.859	-7.0832	296.8782	22.6901	572.6034	-39.5616	209.3122	19.3255	423.2347	-0.0592	0.0182	-0.0073	-0.0462	0.0165	0.9585
0.914	-17.9987	335.8824	6.1646	-127.9868	-13.7784	320.9182	17.936	537.8504	-36.7382	195.6728	19.032	399.5687	-0.0592	0.0182	-0.0073	-0.0462	0.0165	0.9585
0.92736	-23.0312	352.6818	10.4972	-133.9818	-19.836	337.0028	14.1638	504.132	-34.0052	182.5477	18.472	376.232	-0.0592	0.0182	-0.0073	-0.0462	0.0165	0.9585
0.94071	-26.9125	365.0611	14.3417	-138.2972	-24.928	348.6131	11.669	472.0801	-31.5499	170.1855	17.6604	353.5436	-0.0592	0.0182	-0.0073	-0.0462	0.0165	0.9585
0.95407	-29.8112	376.437	17.4167	-142.2769	-28.8679	358.8736	10.4423	441.5552	-29.3714	158.5415	16.597	331.3946	-0.0592	0.0182	-0.0073	-0.0462	0.0165	0.9585
0.96743	-31.7812	389.4948	19.7659	-146.9585	-31.733	370.1969	10.2876	411.9213	-27.3244	147.3845	15.253	309.3956	-0.0592	0.0182	-0.0073	-0.0462	0.0165	0.9585
0.98079	-32.7291	406.1685	21.5928	-153.0687	-33.6929	384.2698	10.8715	382.3112	-25.2291	136.3921	13.6212	287.0393	-0.0592	0.0182	-0.0073	-0.0462	0.0165	0.9585
0.99414	-32.6003	427.4629	23.353	-160.9509	-35.156	401.9601	11.7906	351.8131	-22.9752	125.2211	11.7687	263.7984	-0.0592	0.0182	-0.0073	-0.0462	0.0165	0.9585
1.0075	-31.5029	453.2807	25.501	-170.5238	-36.5763	423.1367	12.6331	319.6797	-20.5324	113.5837	9.8199	239.2629	-0.0592	0.0182	-0.0073	-0.0462	0.0165	0.9585
1.0209	-29.6916	482.8876	28.4564	-181.4623	-38.4281	447.1383	13.0256	285.5312	-17.9439	101.3203	7.9358	213.281	-0.0592	0.0182	-0.0073	-0.0462	0.0165	0.9585
1.0342	-27.4368	515.5335	32.2901	-193.4548	-40.8692	473.3077	12.7124	249.4909	-15.2932	88.4512	6.2619	186.0244	-0.0592	0.0182	-0.0073	-0.0462	0.0165	0.9585
1.0476	-24.9673	550.6158	36.8813	-206.2619	-43.8735	501.1357	11.5815	212.2628	-12.6915	75.2044	4.909	158.0556	-0.0592	0.0182	-0.0073	-0.0462	0.0165	0.9585
1.0609	-22.4694	587.5335	41.9195	-219.6544	-47.2246	530.1398	9.7153	175.0344	-10.2421	61.9861	3.9114	130.242	-0.0592	0.0182	-0.0073	-0.0462	0.0165	0.9585
1.0743	-20.0676	625.3877	47.1223	-233.2953	-50.7129	559.6027	7.3582	139.2684	-8.0343	49.3043	3.2389	103.6308	-0.0592	0.0182	-0.0073	-0.0462	0.0165	0.9585
1.0876	-17.8714	662.8496	52.1733	-246.6926	-54.0893	588.454	4.8478	106.3873	-6.1214	37.656	2.8029	79.2291	-0.0592	0.0182	-0.0073	-0.0462	0.0165	0.9585
1.101	-15.9494	698.2576	56.837	-259.2333	-57.1707	615.3367	2.5121	77.4984	-4.5269	27.4284	2.505	57.8156	-0.0592	0.0182	-0.0073	-0.0462	0.0165	0.9585
1.1144	-14.2951	729.8739	60.891	-270.2846	-59.7638	638.8028	0.58407	53.2653	-3.2221	18.8539	2.2448	39.8647	-0.0592	0.0182	-0.0073	-0.0462	0.0165	0.9585
1.1277	-12.8533	756.2211	64.2036	-279.3137	-61.7402	657.6406	-0.79377	33.9031	-2.1717	12.0083	1.9548	25.5189	-0.0592	0.0182	-0.0073	-0.0462	0.0165	0.9585
1.1411	-11.51	776.3263	66.6734	-285.9776	-62.9741	671.0606	-1.5699	19.2902	-1.3463	6.8473	1.6053	14.6874	-0.0592	0.0182	-0.0073	-0.0462	0.0165	0.9585
1.1544	-10.1644	789.7888	68.2956	-290.1426	-63.4304	678.7819	-1.7881	9.0381	-0.73405	3.2314	1.215	7.0886	-0.0592	0.0182	-0.0073	-0.0462	0.0165	0.9585
1.1678	-8.7406	796.7461	69.1086	-291.866	-63.1212	680.9875	-1.6404	2.5378	-0.31517	0.94175	0.83975	2.2749	-0.0592	0.0182	-0.0073	-0.0462	0.0165	0.9585
1.1811	-7.2117	797.8331	69.2353	-291.3798	-62.1528	678.2928	-1.3161	-1.0288	-0.062866	-0.31344	0.52764	-0.35705	-0.0592	0.0182	-0.0073	-0.0462	0.0165	0.9585
1.1945	-5.6196	794.1437	68.8233	-289.0804	-60.6767	671.7089	-0.93936	-2.513	0.070356	-0.83492	0.28568	-1.4408	-0.0592	0.0182	-0.0073	-0.0462	0.0165	0.9585
1.2079	-4.0541	787.0696	68.0672	-285.4733	-58.9037	662.4868	-0.58788	-2.6652	0.11788	-0.88759	0.11844	-1.5377	-0.0592	0.0182	-0.0073	-0.0462	0.0165	0.9585
1.2212	-2.6364	778.1244	67.1572	-281.1109	-57.0476	651.9545	-0.29738	-2.0721	0.11621	-0.67743	0.010686	-1.0828	-0.0592	0.0182	-0.0073	-0.0462	0.0165	0.9585
1.2346	-1.47	768.7524	66.2763	-276.5303	-55.309	641.3405	-0.074124	-1.1495	0.082577	-0.35049	-0.046116	-0.37883	-0.0592	0.0182	-0.0073	-0.0462	0.0165	0.9585
1.2479	-0.6145	760.1831	65.5478	-272.2024	-53.8219	631.6436	0.082434	-0.15981	0.036263	0.0008154	-0.065789	0.38435	-0.0592	0.0182	-0.0073	-0.0462	0.0165	0.9585
1.2613	-0.094463	753.3234	65.0329	-268.4937	-52.6519	623.5525	0.18062	0.7476	-0.011558	0.3239	-0.056543	1.0857	-0.0592	0.0182	-0.0073	-0.0462	0.0165	0.9585
1.2746	0.11135	748.7266	64.7162	-265.6504	-51.7827	617.4112	0.23262	1.5033	-0.05431	0.59435	-0.028229	1.6637	-0.0592	0.0182	-0.0073	-0.0462	0.0165	0.9585
1.288	0.059922	746.6279	64.5323	-263.8037	-51.1421	613.2817	0.25321	2.0798	-0.095556	0.80349	0.014685	2.0957	-0.0592	0.0182	-0.0073	-0.0462	0.0165	0.9585
1.3014	-0.16201	746.9818	64.3877	-262.9784	-50.6241	610.9945	0.25428	2.4717	-0.13895	0.94993	0.068969	2.376	-0.0592	0.0182	-0.0073	-0.0462	0.0165	0.9585
1.3147	-0.45572	749.506	64.1779	-263.104	-50.1106	610.2119	0.24281	2.6787	-0.18755	1.0321	0.13111	2.5003	-0.0592	0.0182	-0.0073	-0.0462	0.0165	0.9585
1.3281	-0.70285	753.7203	63.8083	-264.0305	-49.4828	610.4731	0.22229	2.6851	-0.2435	1.0415	0.19892	2.453	-0.0592	0.0182	-0.0073	-0.0462	0.0165	0.9585
1.3414	-0.77064	759.0194	63.205	-265.5474	-48.6321	611.2419	0.19116	2.4613	-0.30667	0.96265	0.27362	2.2065	-0.0592	0.0182	-0.0073	-0.0462	0.0165	0.9585
1.3548	-0.52415	764.7339	62.3306	-267.4067	-47.4759	611.9496	0.15386	1.9506	-0.3761	0.77153	0.3549	1.7063	-0.0592	0.0182	-0.0073	-0.0462	0.0165	0.9585
1.3681	0.16628	770.2016	61.1882	-269.351	-45.9632	612.0633	0.11021	1.0849	-0.44433	0.43902	0.43501	0.89433	-0.0592	0.0182	-0.0073	-0.0462	0.0165	0.9585
1.3815	1.402	774.809	59.8314	-271.1306	-44.0886	611.1261	0.069574	-0.2002	-0.49383	-0.063222	0.49386	-0.29369	-0.0592	0.0182	-0.0073	-0.0462	0.0165	0.9585
1.3949	3.2683	778.0027	58.3464	-272.5119	-41.8753	608.7374	0.047906	-1.9385	-0.50787	-0.74915	0.50956	-1.8994	-0.0592	0.0182	-0.0073	-0.0462	0.0165	0.9585
1.4082	5.8322	779.3206	56.8571	-273.2911	-39.3851	604.5718	0.061221	-4.0796	-0.46339	-1.5969	0.45265	-3.8761	-0.0592	0.0182	-0.0073	-0.0462	0.0165	0.9585
1.4216	9.1521	778.4609	55.4873	-273.324	-36.6857	598.4382	0.1376	-6.4259	-0.33509	-2.5248	0.28834	-6.0416	-0.0592	0.0182	-0.0073	-0.0462	0.0165	0.9585
1.4349	13.2604	775.3117	54.3619	-272.5373	-33.8679	590.3131	0.30253	-8.556	-0.082463	-3.3619	-0.03101	-7.9999	-0.0592	0.0182	-0.0073	-0.0462	0.0165	0.9585
1.4483	18.1172	769.9183	53.577	-270.9213	-31.0291	580.3246	0.59366	-9.7498	0.33213	-3.8179	-0.55105	-9.0844	-0.0592	0.0182	-0.0073	-0.0462	0.0165	0.9585
1.4616	23.6108	762.4377	53.214	-268.5162	-28.2863	568.6943	1.0391	-8.9009	0.94247	-3.4499	-1.3051	-8.2691	-0.0592	0.0182	-0.0073	-0.0462	0.0165	0.9585
1.475	29.5459	753.1254	53.2866	-265.4081	-25.7294	555.7232	1.6465	-4.4872	1.7572	-1.6499	-2.2901	-4.1551	-0.0592	0.0182	-0.0073	-0.0462	0.0165	0.9585
1.4884	35.6509	742.2328	53.752	-261.6916	-23.4356	541.7205	2.3917	5.3973	2.7445	2.3378	-3.4501	4.9996	-0.0592	0.0182	-0.0073	-0.0462	0.0165	0.9585
1.5017	41.574	729.8439	54.4859	-257.4112	-21.443	526.8924	3.1879	22.868	3.7937	9.3478	-4.6347	21.1392	-0.0592	0.0182	-0.0073	-0.0462	0.0165	0.9585
1.5151	46.888	715.7061	55.3071	-252.4927	-19.7747	511.2345	3.8717	49.8564	4.681	20.1384	-5.5616	46.0339	-0.0592	0.0182	-0.0073	-0.0462	0.0165	0.9585
1.5284	51.152	699.1095	55.9741	-246.6939	-18.417	494.423	4.1471	87.49	5.0274	35.1395	-5.7576	80.7083	-0.0592	0.0182	-0.0073	-0.0462	0.0165	0.9585
1.5418	53.9468	678.8965	56.2345	-239.6067	-17.3492	475.8281	3.4561	135.2031	4.3596	54.0972	-4.5697	124.6196	-0.0592	0.0182	-0.0073	-0.0462	0.0165	0.9585
1.5551	54.9594	653.7222	55.8211	-230.7552	-16.5097	454.6652	1.039	189.6586	2.1829	75.65	-1.2691	174.6653	-0.0592	0.0182	-0.0073	-0.0462	0.0165	0.9585
1.5685	54.069	622.6183	54.5283	-219.8001	-15.823	430.3544	-3.2451	244.8058	-1.9493	97.3623	4.5552	225.2212	-0.0592	0.0182	-0.0073	-0.0462	0.0165	0.9585
